PathFileType	4	(X/Y/Z)	F:\biomechanics\vid_Sports2D\vid_Sports2D_m_person00.trc
DataRate	CameraRate	NumFrames	NumMarkers	Units	OrigDataRate	OrigDataStartFrame	OrigNumFrames
250.0	250.0	5	22	m	250.0	672	769
Frame#	Time	Hip			RHip			RKnee			RAnkle			RBigToe			RSmallToe			RHeel			LHip			LKnee			LAnkle			LBigToe			LSmallToe			LHeel			Neck			Head			Nose			RShoulder			RElbow			RWrist			LShoulder			LElbow			LWrist			
		X1	Y1	Z1	X2	Y2	Z2	X3	Y3	Z3	X4	Y4	Z4	X5	Y5	Z5	X6	Y6	Z6	X7	Y7	Z7	X8	Y8	Z8	X9	Y9	Z9	X10	Y10	Z10	X11	Y11	Z11	X12	Y12	Z12	X13	Y13	Z13	X14	Y14	Z14	X15	Y15	Z15	X16	Y16	Z16	X17	Y17	Z17	X18	Y18	Z18	X19	Y19	Z19	X20	Y20	Z20	X21	Y21	Z21	X22	Y22	Z22
711	2.8475241635687736	1.7780114429632012	0.7234100425676677	0.0	1.805305256070717	0.7381901637146601	0.105	1.9799594520752182	0.33403882916276306	0.0886	1.8224079347464959	-0.07604589936967114	0.0972	1.988336648741315	-0.12901897966760084	0.0766	1.951179477496369	-0.14738320495268623	0.12	1.7649564040728773	-0.11969479449169522	0.0883	1.7418778496714753	0.7363688693744308	-0.105	1.9165298216323594	0.3369835414154289	-0.0886	1.8046934302043198	-0.040234413939799075	-0.0972	1.9668423993838753	-0.08470636772486616	-0.0766	1.9505554856515688	-0.07879594598098281	-0.12	1.7443007712254777	-0.07830804422552076	-0.0883	1.7699032466160105	1.2797156598715738	0.0	1.7687235891132078	1.5494272328205088	0.0	1.8659577438237556	1.4415090662508658	0.0	1.8291528276198796	1.188815938161078	0.2016	2.1343090734050723	1.2541784208062134	0.1613	2.371035857270222	1.3688940217838013	0.12	1.682246479017048	1.1962492893773575	-0.2016	1.9069703551697326	1.2178029267890227	-0.1613	2.0316765087005924	1.3376325143907872	-0.12
712	2.8515291201982658	1.7778588355065077	0.7197630921674063	0.0	1.8051048749279106	0.7346200384490702	0.105	1.981457128320914	0.3313749249549034	0.0886	1.821610778230083	-0.07770780190947554	0.0972	1.9881070684498676	-0.12933112581691622	0.0766	1.9508821592511651	-0.14769421240221312	0.12	1.7641328602232835	-0.12105075998119827	0.0883	1.7413221579533489	0.7327106667978152	-0.105	1.917391257027919	0.33440392515186845	-0.0886	1.8042497561940278	-0.04179415488239757	-0.0972	1.966664064245596	-0.08596154476114386	-0.0766	1.9499700112839824	-0.0799806427347462	-0.12	1.7445468943860782	-0.07995897346529211	-0.0883	1.7703531224202456	1.2764182262497277	0.0	1.7703684496849443	1.5459434864338262	0.0	1.86663008451667	1.4377260257199076	0.0	1.8293730946875972	1.1844239632934226	0.2016	2.1351818562452682	1.2468933232310757	0.1613	2.3732565513344563	1.3594113015187705	0.12	1.6820459151001288	1.1924223199816826	-0.2016	1.9049489956635224	1.2094371158223074	-0.1613	2.0229601698771447	1.3281420089028773	-0.12
713	2.8555340768277575	1.7776940044499105	0.7162040346542716	0.0	1.8048750535542726	0.731117261391716	0.105	1.9830628922174318	0.3288933433308106	0.0886	1.8209600675462638	-0.07921791852111773	0.0972	1.98789660805804	-0.12965323717903826	0.0766	1.9505850017999424	-0.14799197390370677	0.12	1.7634550097295532	-0.12220493889926226	0.0883	1.7407909210586983	0.7291271217986889	-0.105	1.9183956307351258	0.3320022663913995	-0.0886	1.803944653629156	-0.043222432460446505	-0.0972	1.9665784023412527	-0.08714834264282088	-0.0766	1.9494809884263626	-0.08113212617896423	-0.12	1.744886449095461	-0.08148186527004204	-0.0883	1.7708092107804494	1.2732104753273021	0.0	1.7719902684593603	1.5425411648315484	0.0	1.8673076770148826	1.434039101277946	0.0	1.8295461988271573	1.1801368041288138	0.2016	2.1360378100140496	1.2396037900500088	0.1613	2.3754406238278163	1.3498746117502045	0.12	1.6819212240380432	1.1887058715502146	-0.2016	1.9034242153742675	1.2009645449641606	-0.1613	2.0147937517962426	1.318579115882043	-0.12
714	2.8595390334572497	1.777513886921517	0.7127288668286377	0.0	1.8046130998319592	0.7276811256760672	0.105	1.984776032724394	0.3265953459155665	0.0886	1.8204527218388307	-0.08057526687810829	0.0972	1.9877009875037956	-0.12998327873947674	0.0766	1.950289955720525	-0.1482743586369338	0.12	1.76291578375443	-0.12316177774078715	0.0883	1.7402776649490967	0.7256175652586476	-0.105	1.9195435895144615	0.3297793653656446	-0.0886	1.8037752345520914	-0.044522632720176196	-0.0972	1.9665746162111626	-0.08826219188795259	-0.0766	1.9490812558711084	-0.08224781209108052	-0.12	1.7453130183683894	-0.08287689195389883	-0.0883	1.7712727050235841	1.2700910753370735	0.0	1.7735870264997058	1.5392250005450416	0.0	1.867989767443107	1.4304492896145702	0.0	1.8296711705334254	1.175959511374296	0.2016	2.1368767631441683	1.2323087094103549	0.1613	2.3775822327731397	1.3402766841348068	0.12	1.681878930295018	1.185096419563036	-0.2016	1.9024893573143207	1.1923949409906687	-0.1613	2.0074840224656425	1.308921494919574	-0.12
715	2.8635439900867414	1.7773152705599138	0.7093336702588671	0.0	1.8043162508845847	0.7243111298428249	0.105	1.9865921966980669	0.324480195244922	0.0886	1.8200839238373103	-0.08178000616292513	0.0972	1.9875159490536698	-0.13031878454665813	0.0766	1.9499985467386813	-0.14853961011889935	0.12	1.7625071789102433	-0.1239275612297118	0.0883	1.739776805220432	0.7221811078934028	-0.105	1.9208318745175037	0.32773455581066574	-0.0886	1.8037387659502055	-0.0456981388366361	-0.0972	1.9666420779299332	-0.08929800246634591	-0.0766	1.948763395221871	-0.08332175810971791	-0.12	1.7458195218150412	-0.08414400249402905	-0.0883	1.7717449850323637	1.2670584112716035	0.0	1.7751569922111026	1.5359997774897383	0.0	1.868675373937498	1.4269571770278762	0.0	1.8297508751110283	1.1718970310644456	0.2016	2.1377000764839615	1.2250091540395043	0.1613	2.3796767564602597	1.330610314589161	0.12	1.681925476806206	1.181589946156214	-0.2016	1.9022331670239205	1.1837402752829407	-0.1613	2.0013393911962885	1.2991467460979902	-0.12
